<svg xmlns="http://www.w3.org/2000/svg" viewBox="0 0 64 64" fill="none">
  <!-- Background circle -->
  <circle cx="32" cy="32" r="30" fill="#1e1e2e"/>
  
  <!-- Rocket body -->
  <path d="M32 8c-6 8-10 18-10 28 0 4 2 8 4 10l6-4 6 4c2-2 4-6 4-10 0-10-4-20-10-28z" fill="#cba6f7"/>
  
  <!-- Rocket window -->
  <circle cx="32" cy="24" r="5" fill="#1e1e2e"/>
  <circle cx="32" cy="24" r="3" fill="#89dceb"/>
  
  <!-- Rocket fins -->
  <path d="M22 36c-4 2-6 6-6 10l6-2 2-8z" fill="#f38ba8"/>
  <path d="M42 36c4 2 6 6 6 10l-6-2-2-8z" fill="#f38ba8"/>
  
  <!-- Rocket flames -->
  <path d="M28 46l4 12 4-12c-1 2-3 3-4 3s-3-1-4-3z" fill="#fab387"/>
  <path d="M30 46l2 8 2-8c-1 1-2 2-2 2s-1-1-2-2z" fill="#f9e2af"/>
  
  <!-- Stars -->
  <circle cx="12" cy="16" r="1.5" fill="#cba6f7"/>
  <circle cx="52" cy="20" r="1" fill="#89dceb"/>
  <circle cx="48" cy="48" r="1.5" fill="#cba6f7"/>
  <circle cx="16" cy="44" r="1" fill="#94e2d5"/>
</svg>
